# AST/ASF file generated using VICON BodyLanguage
# -----------------------------------------------
:version 1.10
:name VICON
:units
  mass 1.0
  length 0.45
  angle deg
:documentation
   .ast/.asf automatically generated from VICON data using
   VICON BodyBuilder and BodyLanguage model FoxedUp or BRILLIANT.MOD
:root
   order TX TY TZ RX RY RZ
   axis XYZ
   position 0 0 0  
   orientation 0 0 0 
:bonedata
  begin
     id 1 
     name lhipjoint
     direction 0.700308 -0.549349 0.455834 
     length 2.59063 
     axis 0 0 0  XYZ
  end
  begin
     id 2 
     name lfemur
     direction 0.34202 -0.939693 0  
     length 6.31066  
     axis 0 0 20  XYZ
    dof rx ry rz
    limits (-160.0 20.0)
           (-70.0 70.0)
           (-60.0 70.0)
  end
  begin
     id 3 
     name ltibia
     direction 0.34202 -0.939693 0   
     length 7.36093   
     axis 0 0 20   XYZ
    dof rx
    limits (-10.0 170.0)
  end
  begin
     id 4 
     name lfoot
     direction 0.0905332 -0.248738 0.96433   
     length 2.0233   
     axis -90 7.62852e-016 20   XYZ
    dof rx rz
    limits (-45.0 90.0)
           (-70.0 20.0)
  end
  begin
     id 5 
     name ltoes
     direction 1.53573e-011 -4.21855e-011 1   
     length 1.01524   
     axis -90 7.62852e-016 20   XYZ
    dof rx
    limits (-90.0 20.0)
  end
  begin
     id 6 
     name rhipjoint
     direction -0.61416 -0.607328 0.503944   
     length 2.34332  
     axis 0 0 0  XYZ 
  end
  begin
     id 7 
     name rfemur
     direction -0.34202 -0.939693 0   
     length 6.58548   
     axis 0 0 -20   XYZ
    dof rx ry rz
    limits (-160.0 20.0)
           (-70.0 70.0)
           (-70.0 60.0)
  end
  begin
     id 8 
     name rtibia
     direction -0.34202 -0.939693 0   
     length 7.20707   
     axis 0 0 -20   XYZ
    dof rx
    limits (-10.0 170.0)
 end
 begin
     id 9 
     name rfoot
     direction -0.136772 -0.375778 0.916561   
     length 1.92184  
     axis -90 -7.62852e-016 -20   XYZ
    dof rx rz
    limits (-45.0 90.0)
           (-20.0 70.0)
  end
  begin
     id 10 
     name rtoes
     direction -1.53535e-011 -4.21828e-011 1   
     length 0.951089   
     axis -90 -7.62852e-016 -20   XYZ
    dof rx
    limits (-90.0 20.0)
  end
  begin
     id 11 
     name lowerback
     direction -0.0444974 0.988086 -0.147332   
     length 1.9609   
     axis 0 0 0   XYZ
    dof rx ry rz
    limits (-20.0 45.0)
           (-30.0 30.0)
           (-30.0 30.0)
  end
  begin
     id 12 
     name upperback
     direction 0.00613146 0.999513 0.0306081   
     length 1.94944   
     axis 0 0 0   XYZ
    dof rx ry rz
    limits (-20.0 45.0)
           (-30.0 30.0)
           (-30.0 30.0)
  end
  begin
     id 13 
     name thorax
     direction 0.0254621 0.994518 0.101418   
     length 2.0119   
     axis 0 0 0   XYZ
    dof rx ry rz
    limits (-20.0 45.0)
           (-30.0 30.0)
           (-30.0 30.0)
  end
  begin
     id 14 
     name lowerneck
     direction 0.0168698 0.977854 0.208608   
     length 1.6375   
     axis 0 0 0   XYZ
    dof rx ry rz
    limits (-20.0 45.0)
           (-30.0 30.0)
           (-30.0 30.0)
  end
  begin
     id 15 
     name upperneck
     direction -0.0283988 0.989338 -0.142843   
     length 1.6851   
     axis 0 0 0   XYZ
    dof rx ry rz
    limits (-20.0 45.0)
           (-30.0 30.0)
           (-30.0 30.0)
  end
  begin
     id 16
     name head
     direction -0.0129422 0.99741 -0.0707489  
     length 1.69029  
     axis 0 0 0   XYZ
    dof rx ry rz
    limits (-20.0 45.0)
           (-30.0 30.0)
           (-30.0 30.0)
  end
  begin
     id 17 
     name lclavicle
     direction 0.820295 0.564628 -0.0911715  
     length 3.16484  
     axis 0 0 0   XYZ
    dof ry rz
    limits (-20.0 10.0)
           (0.0 20.0)
  end
  begin
     id 18 
     name lhumerus
     direction 1 -4.48969e-011 1.00186e-027   
     length 5.17853   
     axis 180 -30 -90   XYZ
    dof rx ry rz
    limits (-60.0 90.0)
           (-90.0 90.0)
           (-90.0 90.0)
  end
  begin
     id 19
     name lradius
     direction 1 -4.48966e-011 -1.52922e-027   
     length 3.40399   
     axis 180 -30 -90   XYZ
    dof rx
    limits (-10.0 170.0)
  end
  begin
     id 20
     name lwrist
     direction 1 -4.48981e-011 -3.80893e-027   
     length 1.70199   
     axis 1.1049e-015 90 90   XYZ
    dof ry
    limits (-180.0 0.0)
 end
  begin
     id 21 
     name lhand
     direction 1 -4.48957e-011 -7.61786e-027   
     length 0.708964   
     axis 4.86085e-015 90 90   XYZ
    dof rx rz
    limits (-90.0 90.0)
           (-45.0 45.0)
  end
  begin
     id 22 
     name lfingers
     direction 1 -4.48929e-011 -1.52357e-026   
     length 0.571585   
     axis 9.7217e-015 90 90   XYZ
    dof rx
    limits (0.0 90.0)
  end
  begin
     id 23
     name lthumb
     direction 0.707107 -6.34905e-011 0.707107   
     length 0.820685   
     axis -90 45 2.85299e-015   XYZ
    dof rx rz
    limits (-45.0 45.0)
           (-45.0 45.0)
  end
  begin
     id 24 
     name rclavicle
     direction -0.858602 0.463947 -0.218075   
     length 3.35137  
     axis 0 0 0   XYZ 
    dof ry rz
    limits (-10.0 20.0)
           (-20.0 0.0)
  end
  begin
     id 25 
     name rhumerus
     direction -1 -4.48969e-011 -1.98511e-027  
     length 5.42351   
     axis 180 30 90   XYZ
    dof rx ry rz
    limits (-90.0 60.0)
           (-90.0 90.0)
           (-90.0 90.0)
  end
  begin
     id 26 
     name rradius
     direction -1 -4.48961e-011 -2.82624e-027   
     length 3.42066   
     axis 180 30 90   XYZ
    dof rx
    limits (-10.0 170.0)
  end
  begin
     id 27 
     name rwrist
     direction -1 -4.48966e-011 -3.80893e-027   
     length 1.71033   
     axis 1.1049e-015 -90 -90   XYZ
    dof ry
    limits (-180.0 0.0)
  end
  begin
     id 28
     name rhand
     direction -1 -4.48964e-011 -7.61786e-027   
     length 0.743608   
     axis 4.86085e-015 -90 -90   XYZ
    dof rx rz
    limits (-90.0 90.0)
           (-45.0 45.0)
  end
  begin
     id 29
     name rfingers
     direction -1 -4.48961e-011 -1.52357e-026   
     length 0.599516   
     axis 9.7217e-015 -90 -90   XYZ
    dof rx
    limits (0.0 90.0)
  end
  begin
     id 30
     name rthumb
     direction -0.707107 -6.34913e-011 0.707107   
     length 0.860789   
     axis -90 -45 -2.85299e-015   XYZ
    dof rx rz
    limits (-45.0 45.0)
           (-45.0 45.0)
  end
:hierarchy
  begin
    root lhipjoint rhipjoint lowerback
    lhipjoint lfemur
    lfemur ltibia
    ltibia lfoot
    lfoot ltoes
    rhipjoint rfemur
    rfemur rtibia
    rtibia rfoot
    rfoot rtoes
    lowerback upperback
    upperback thorax
    thorax lowerneck lclavicle rclavicle
    lowerneck upperneck
    upperneck head
    lclavicle lhumerus
    lhumerus lradius
    lradius lwrist
    lwrist lhand lthumb
    lhand lfingers
    rclavicle rhumerus
    rhumerus rradius
    rradius rwrist
    rwrist rhand rthumb
    rhand rfingers
  end

#!OML:ASF E:\mmandel\Project 1\Capture day 1\Session 2\Subject.ASF
:FULLY-SPECIFIED
:DEGREES
586
root 4.81022 15.7603 -0.645775 160.927 86.3314 130.426
lowerback 32.3302 0.597597 -1.03951
upperback 9.18424 1.32351 -0.278562
thorax -7.21319 0.992803 -0.247136
lowerneck -23.5444 3.36582 5.60979
upperneck 22.3298 5.1931 -8.65972
head 11.5855 1.7414 -3.27272
rclavicle 5.1684e-014 2.42517e-014
rhumerus -2.29425 14.2181 -73.9736
rradius 23.4782
rwrist -362.124
rhand 0.269203 27.2515
rfingers 7.12502
rthumb 25.8482 -1.01196
lclavicle 5.1684e-014 2.42517e-014
lhumerus -6.41834 -32.0828 68.3724
lradius 31.7891
lwrist 31.3624
lhand -20.1334 -28.916
lfingers 7.12502
lthumb 6.21099 0.972899
rfemur -60.3846 -13.7068 28.8667
rtibia 58.9065
rfoot -33.4291 -16.874
rtoes 6.40323
lfemur -66.9156 18.8841 -28.0985
ltibia 56.0316
lfoot -7.0301 6.37403
ltoes 0.0768822
587
root 4.82516 15.7802 -0.630078 162.771 86.1271 132.722
lowerback 32.0881 0.628304 -1.16099
upperback 9.1162 1.3228 -0.238135
thorax -7.18332 0.99001 -0.12716
lowerneck -23.2995 3.34647 5.62137
upperneck 22.4908 5.17471 -8.59403
head 11.596 1.74888 -3.2566
rclavicle 1.19271e-014 6.75868e-015
rhumerus -3.29488 14.2292 -74.4138
rradius 23.5925
rwrist -362.54
rhand 0.541159 26.9448
rfingers 7.12502
rthumb 26.1086 -1.28047
lclavicle 1.19271e-014 6.75868e-015
lhumerus -7.84625 -32.3835 69.2244
lradius 31.8806
lwrist 31.3579
lhand -19.9331 -28.547
lfingers 7.12502
lthumb 6.40437 1.33617
rfemur -59.3862 -13.6065 28.6787
rtibia 58.2538
rfoot -33.578 -17.368
rtoes 6.38597
lfemur -66.4961 18.6772 -27.6131
ltibia 56.1974
lfoot -6.17256 6.33153
ltoes -0.302348
588
root 4.84134 15.8071 -0.626263 164.427 85.8417 134.917
lowerback 31.9257 0.533253 -1.05189
upperback 9.08061 1.23419 -0.273355
thorax -7.1468 0.948731 -0.194943
lowerneck -23.3757 3.26931 5.4473
upperneck 22.905 5.04948 -8.18577
head 11.7386 1.72486 -3.10353
rclavicle -1.03368e-014 -1.70955e-014
rhumerus -4.20102 14.3918 -74.864
rradius 23.6035
rwrist -363.009
rhand 1.20075 26.0861
rfingers 7.12502
rthumb 26.74 -2.04425
lclavicle -1.03368e-014 -1.70955e-014
lhumerus -9.09561 -32.4667 70.0082
lradius 31.9257
lwrist 31.2519
lhand -19.6628 -28.2221
lfingers 7.12502
lthumb 6.66534 1.65301
rfemur -58.27 -13.7812 28.4793
rtibia 57.6055
rfoot -33.7856 -17.6051
rtoes 6.52267
lfemur -65.8874 18.2615 -27.0398
ltibia 56.3414
lfoot -5.53644 6.36731
ltoes -0.195999
589
root 4.86104 15.8318 -0.624297 165.904 85.5635 136.989
lowerback 31.7382 0.460952 -0.979174
upperback 9.06669 1.16834 -0.271886
thorax -7.07552 0.918488 -0.208136
lowerneck -23.5726 3.26555 5.36191
upperneck 23.4663 5.06671 -7.99191
head 11.985 1.74268 -3.02437
rclavicle -1.27222e-014 1.78906e-014
rhumerus -5.14095 14.5735 -75.2382
rradius 23.6616
rwrist -363.36
rhand -0.00706631 27.2205
rfingers 7.12502
rthumb 25.5836 -1.08126
lclavicle -1.27222e-014 1.78906e-014
lhumerus -10.3071 -32.2847 70.8311
lradius 31.9059
lwrist 30.9816
lhand -19.0324 -28.0101
lfingers 7.12502
lthumb 7.27385 1.84491
rfemur -57.1121 -14.0533 28.3205
rtibia 56.9699
rfoot -34.0514 -17.7788
rtoes 6.92486
lfemur -65.2234 17.8549 -26.4771
ltibia 56.4379
lfoot -5.05319 6.38884
ltoes -0.356728
590
root 4.88198 15.8534 -0.621578 168.381 85.3495 140.011
lowerback 31.454 0.42354 -0.92934
upperback 9.0386 1.14095 -0.20629
thorax -6.9777 0.903808 -0.148567
lowerneck -23.4093 3.22787 5.28107
upperneck 23.6279 5.03218 -7.8604
head 12.0062 1.7414 -2.96999
rclavicle 2.82274e-014 -1.82882e-014
rhumerus -6.10884 14.8668 -75.5951
rradius 23.8114
rwrist -363.761
rhand -0.365335 27.4824
rfingers 7.12502
rthumb 25.2404 -0.868151
lclavicle 2.82274e-014 -1.82882e-014
lhumerus -11.6063 -31.8467 71.6766
lradius 31.9862
lwrist 30.5265
lhand -18.0918 -27.8223
lfingers 7.12502
lthumb 8.1817 1.99934
rfemur -56.0381 -14.2379 28.2918
rtibia 56.3491
rfoot -34.2383 -18.1472
rtoes 6.93596
lfemur -64.6093 17.493 -25.819
ltibia 56.4562
lfoot -4.66858 6.17691
ltoes 0.397056
591
root 4.90424 15.8776 -0.618383 171.306 85.2551 143.418
lowerback 31.17 0.430861 -0.830713
upperback 8.97047 1.17575 -0.149376
thorax -6.92465 0.915825 -0.149949
lowerneck -23.1214 3.08561 5.0553
upperneck 23.6107 4.81228 -7.46671
head 11.9068 1.68141 -2.82007
rclavicle 6.75868e-015 4.85035e-014
rhumerus -7.04956 15.2615 -75.99
rradius 23.9003
rwrist -364.372
rhand -0.236939 27.2219
rfingers 7.12502
rthumb 25.3634 -1.11123
lclavicle 6.75868e-015 4.85035e-014
lhumerus -12.8471 -31.1738 72.4849
lradius 32.0263
lwrist 29.8817
lhand -17.2597 -28.1443
lfingers 7.12502
lthumb 8.98472 1.64439
rfemur -55.0169 -14.207 28.3247
rtibia 55.7287
rfoot -34.3259 -18.5428
rtoes 6.51097
lfemur -64.0243 17.2587 -25.0863
ltibia 56.3592
lfoot -4.36279 5.73938
ltoes 1.30769
592
root 4.92502 15.9045 -0.616978 173.511 85.2174 146.06
lowerback 30.884 0.461895 -0.744671
upperback 8.8873 1.22888 -0.138631
thorax -6.88627 0.93586 -0.202214
lowerneck -22.9001 2.99428 4.97578
upperneck 23.6292 4.68178 -7.30983
head 11.8537 1.64257 -2.77003
rclavicle -1.11319e-014 -1.86858e-014
rhumerus -7.90696 15.6003 -76.3764
rradius 23.9614
rwrist -364.977
rhand 0.0441613 26.7536
rfingers 7.12502
rthumb 25.6327 -1.54111
lclavicle -1.11319e-014 -1.86858e-014
lhumerus -13.9238 -30.615 73.2435
lradius 31.8032
lwrist 29.2107
lhand -16.8051 -28.4631
lfingers 7.12502
lthumb 9.42339 1.30619
rfemur -54.0349 -14.0899 28.2987
rtibia 55.0915
rfoot -34.44 -18.6853
rtoes 6.47047
lfemur -63.4239 17.013 -24.3949
ltibia 56.1025
lfoot -4.22367 5.51176
ltoes 1.37247
593
root 4.94431 15.9275 -0.620037 174.415 85.174 147.422
lowerback 30.6603 0.486797 -0.718589
upperback 8.80554 1.25377 -0.171393
thorax -6.87409 0.943734 -0.25947
lowerneck -22.9367 2.96099 4.98237
upperneck 24.0905 4.64676 -7.20252
head 12.0332 1.64094 -2.74505
rclavicle 4.69132e-014 7.15625e-015
rhumerus -8.75956 15.7639 -76.7678
rradius 24.1027
rwrist -365.213
rhand 0.159126 26.3914
rfingers 7.12502
rthumb 25.7428 -1.88734
lclavicle 4.69132e-014 7.15625e-015
lhumerus -14.9524 -30.1087 73.9161
lradius 31.6818
lwrist 28.6075
lhand -16.0763 -27.9422
lfingers 7.12502
lthumb 10.1265 1.79414
rfemur -53.0194 -13.9461 28.1105
rtibia 54.4347
rfoot -34.6293 -18.7544
rtoes 6.99667
lfemur -62.7058 16.6181 -23.7304
ltibia 55.6698
lfoot -4.37691 5.52145
ltoes 1.39955
594
root 4.96633 15.9515 -0.627413 175.419 85.0659 149.004
lowerback 30.6848 0.474369 -0.665626
upperback 8.74036 1.24971 -0.167775
thorax -6.95881 0.940656 -0.286247
lowerneck -22.7798 3.00456 4.80889
upperneck 23.971 4.74061 -7.1046
head 11.956 1.68352 -2.66018
rclavicle 1.35174e-014 2.62396e-014
rhumerus -9.53622 15.9984 -77.0816
rradius 24.2459
rwrist -365.361
rhand 0.182726 26.2496
rfingers 7.12502
rthumb 25.7654 -2.02589
lclavicle 1.35174e-014 2.62396e-014
lhumerus -15.9513 -29.4777 74.5413
lradius 31.8153
lwrist 28.1951
lhand -14.9372 -27.1042
lfingers 7.12502
lthumb 11.2253 2.57545
rfemur -51.8196 -13.8618 27.8814
rtibia 53.7333
rfoot -34.8043 -18.9774
rtoes 7.55125
lfemur -61.7572 16.2046 -23.0476
ltibia 55.0365
lfoot -4.75631 5.50549
ltoes 1.45272
595
root 4.99233 15.9787 -0.638791 176.472 84.9508 150.556
lowerback 30.6356 0.479346 -0.622327
upperback 8.65944 1.26431 -0.133566
thorax -7.02798 0.944669 -0.278511
lowerneck -23.3176 2.76214 4.16054
upperneck 24.7795 4.40948 -6.18167
head 12.3096 1.58253 -2.2691
rclavicle 2.22639e-014 1.23246e-014
rhumerus -10.2409 16.3835 -77.3221
rradius 24.3507
rwrist -365.711
rhand -0.0878686 26.372
rfingers 7.12502
rthumb 25.5062 -1.94078
lclavicle 2.22639e-014 1.23246e-014
lhumerus -16.9417 -28.8024 75.2131
lradius 31.922
lwrist 27.9368
lhand -14.0242 -26.6616
lfingers 7.12502
lthumb 12.1058 2.96821
rfemur -50.6903 -13.8923 27.7149
rtibia 52.9901
rfoot -34.8653 -19.2104
rtoes 7.94352
lfemur -60.8057 15.8333 -22.4403
ltibia 54.2101
lfoot -5.24943 5.51471
ltoes 1.89046
596
root 5.01986 16.0056 -0.65474 178.058 84.8856 152.52
lowerback 30.3631 0.491343 -0.487476
upperback 8.57316 1.30877 -0.102608
thorax -6.99727 0.960072 -0.333129
lowerneck -23.776 2.68005 3.91766
upperneck 25.6709 4.36617 -5.90298
head 12.7386 1.56809 -2.1407
rclavicle -1.23246e-014 -9.93923e-015
rhumerus -10.9643 16.6129 -77.5504
rradius 24.4854
rwrist -366.044
rhand -0.485288 26.5472
rfingers 7.12502
rthumb 25.1255 -1.81955
lclavicle -1.23246e-014 -9.93923e-015
lhumerus -17.9915 -28.227 75.8992
lradius 32.0243
lwrist 27.6749
lhand -13.4745 -26.58
lfingers 7.12502
lthumb 12.6357 3.0178
rfemur -49.7039 -13.9666 27.6578
rtibia 52.2263
rfoot -34.8199 -19.2544
rtoes 8.53539
lfemur -59.938 15.3918 -21.7715
ltibia 53.1847
lfoot -5.82122 5.58537
ltoes 2.13933
597
root 5.04785 16.0317 -0.669784 180.6 84.7885 155.516
lowerback 30.1613 0.438716 -0.311681
upperback 8.52114 1.29168 -0.0449482
thorax -6.96029 0.948468 -0.360988
lowerneck -22.2905 2.86702 5.15175
upperneck 23.8233 4.61539 -7.68204
head 11.8203 1.60272 -2.95514
rclavicle -5.48646e-014 -1.59028e-014
rhumerus -11.6191 16.7893 -77.8041
rradius 24.5718
rwrist -366.289
rhand -0.728738 26.7429
rfingers 7.12502
rthumb 24.8922 -1.65626
lclavicle -5.48646e-014 -1.59028e-014
lhumerus -18.9989 -27.5758 76.4958
lradius 32.1391
lwrist 27.571
lhand -12.9621 -26.491
lfingers 7.12502
lthumb 13.1298 3.07566
rfemur -48.6125 -13.8936 27.6311
rtibia 51.4754
rfoot -34.8759 -19.3604
rtoes 9.33693
lfemur -58.9631 14.8673 -20.9348
ltibia 51.9454
lfoot -6.398 5.51688
ltoes 0.218163
598
root 5.07813 16.0558 -0.68637 181.5 84.7874 156.827
lowerback 29.9017 0.436612 -0.29605
upperback 8.46062 1.27918 -0.0869096
thorax -6.90536 0.939053 -0.408006
lowerneck -23.553 2.62257 3.75873
upperneck 25.8084 4.31912 -5.73134
head 12.7374 1.56147 -2.05788
rclavicle -4.05521e-014 -3.26007e-014
rhumerus -12.2684 16.955 -78.2036
rradius 24.5606
rwrist -366.627
rhand -1.10309 27.0329
rfingers 7.12502
rthumb 24.5334 -1.41547
lclavicle -4.05521e-014 -3.26007e-014
lhumerus -19.9009 -26.8434 76.9412
lradius 32.2142
lwrist 27.5476
lhand -12.5618 -26.2752
lfingers 7.12502
lthumb 13.5156 3.26625
rfemur -47.5968 -13.6429 27.4293
rtibia 50.7893
rfoot -34.9044 -19.6856
rtoes 9.37755
lfemur -57.9402 14.3548 -20.2335
ltibia 50.4992
lfoot -6.91689 5.39983
ltoes -2.73477
599
root 5.11069 16.0788 -0.708684 180.645 84.8686 156.304
lowerback 29.4934 0.489099 -0.442843
upperback 8.44974 1.28921 -0.15498
thorax -6.72543 0.941796 -0.394091
lowerneck -22.7674 2.6259 4.17272
upperneck 24.6543 4.29105 -6.36329
head 12.15 1.52405 -2.35923
rclavicle -1.35174e-014 -4.57205e-014
rhumerus -12.8186 17.3201 -78.504
rradius 24.6651
rwrist -367.235
rhand -1.30486 26.9339
rfingers 7.12502
rthumb 24.34 -1.54052
lclavicle -1.35174e-014 -4.57205e-014
lhumerus -20.6616 -25.9936 77.3833
lradius 32.2387
lwrist 27.3426
lhand -12.4059 -26.2557
lfingers 7.12502
lthumb 13.6658 3.27563
rfemur -46.7061 -13.4637 27.0998
rtibia 50.1552
rfoot -34.774 -19.9798
rtoes 8.87973
lfemur -56.8233 13.6593 -19.6049
ltibia 48.8426
lfoot -7.59609 5.47109
ltoes -2.80607
600
root 5.14349 16.1002 -0.729388 179.695 84.8808 155.664
lowerback 29.1601 0.602667 -0.623796
upperback 8.40399 1.37063 -0.171632
thorax -6.62152 0.977054 -0.329311
lowerneck -23.0099 2.55857 3.85377
upperneck 25.1015 4.21749 -5.94226
head 12.3495 1.51114 -2.16378
rclavicle 2.22639e-014 1.94809e-014
rhumerus -13.4394 17.3085 -78.6829
rradius 24.8244
rwrist -367.6
rhand -1.67924 27.0931
rfingers 7.12502
rthumb 23.981 -1.42907
lclavicle 2.22639e-014 1.94809e-014
lhumerus -21.3877 -25.3626 77.9456
lradius 32.2442
lwrist 27.0799
lhand -12.3701 -26.4764
lfingers 7.12502
lthumb 13.7004 3.05266
rfemur -45.8358 -13.3252 26.7631
rtibia 49.5379
rfoot -34.7088 -20.1657
rtoes 9.00793
lfemur -55.6709 12.8738 -18.9619
ltibia 47.0294
lfoot -8.37949 5.47135
ltoes -1.79844
